<svg width="40" height="50" viewBox="0 0 40 50" fill="none" xmlns="http://www.w3.org/2000/svg">
<path d="M0 42.5V37.5H5V20C5 16.5417 6.04167 13.4792 8.125 10.8125C10.2083 8.10416 12.9167 6.33333 16.25 5.5V3.75C16.25 2.70833 16.6042 1.83333 17.3125 1.125C18.0625 0.374999 18.9583 0 20 0C21.0417 0 21.9167 0.374999 22.625 1.125C23.375 1.83333 23.75 2.70833 23.75 3.75V5.5C27.0833 6.33333 29.7917 8.10416 31.875 10.8125C33.9583 13.4792 35 16.5417 35 20V37.5H40V42.5H0ZM20 50C18.625 50 17.4375 49.5208 16.4375 48.5625C15.4792 47.5625 15 46.375 15 45H25C25 46.375 24.5 47.5625 23.5 48.5625C22.5417 49.5208 21.375 50 20 50ZM10 37.5H30V20C30 17.25 29.0208 14.8958 27.0625 12.9375C25.1042 10.9792 22.75 10 20 10C17.25 10 14.8958 10.9792 12.9375 12.9375C10.9792 14.8958 10 17.25 10 20V37.5Z" fill="#1D1B20"/>
</svg>
