<svg width="48" height="60" viewBox="0 0 48 60" fill="none" xmlns="http://www.w3.org/2000/svg">
<path d="M29.475 4.34045C29.9116 5.22834 30.5582 5.99636 31.3587 6.57794C32.1592 7.15951 33.0894 7.53709 34.0688 7.67795C35.197 7.84062 36.2572 8.31604 37.1291 9.05033C38.0011 9.78462 38.6499 10.7484 39.0022 11.8326C39.3545 12.9167 39.3961 14.0778 39.1223 15.1844C38.8485 16.291 38.2703 17.2988 37.4531 18.0936C36.7465 18.7871 36.218 19.6412 35.9127 20.5831C35.6075 21.525 35.5345 22.5268 35.7 23.5029C35.8963 24.6295 35.7722 25.7886 35.3417 26.848C34.9113 27.9074 34.1918 28.8246 33.2654 29.495C32.339 30.1654 31.2428 30.562 30.1019 30.6397C28.961 30.7173 27.8212 30.4729 26.8125 29.9342C25.9356 29.4766 24.9611 29.2377 23.9719 29.2377C22.9827 29.2377 22.0082 29.4766 21.1313 29.9342C20.1234 30.465 18.987 30.7032 17.8508 30.6217C16.7145 30.5402 15.6238 30.1424 14.7019 29.4732C13.7801 28.804 13.0639 27.8901 12.6344 26.835C12.205 25.7799 12.0794 24.6257 12.2719 23.5029C12.4374 22.5268 12.3645 21.525 12.0592 20.5831C11.754 19.6412 11.2255 18.7871 10.5188 18.0936C9.70107 17.2969 9.1232 16.2869 8.85082 15.1782C8.57844 14.0696 8.62247 12.9068 8.97791 11.8219C9.33335 10.737 9.98595 9.77359 10.8616 9.04106C11.7372 8.30853 12.8007 7.83627 13.9313 7.67795C14.9106 7.53709 15.8409 7.15951 16.6414 6.57794C17.4418 5.99636 18.0884 5.22834 18.525 4.34045C19.0286 3.31812 19.8083 2.4572 20.7759 1.85518C21.7436 1.25316 22.8604 0.934082 24 0.934082C25.1396 0.934082 26.2565 1.25316 27.2241 1.85518C28.1917 2.4572 28.9715 3.31812 29.475 4.34045Z" stroke="black" stroke-width="3" stroke-linecap="round" stroke-linejoin="round"/>
<path d="M24 29.2402V58.884" stroke="black" stroke-width="3" stroke-linecap="round" stroke-linejoin="round"/>
<path d="M24 22.1154C27.2153 22.1154 29.8218 19.5089 29.8218 16.2936C29.8218 13.0782 27.2153 10.4717 24 10.4717C20.7846 10.4717 18.1781 13.0782 18.1781 16.2936C18.1781 19.5089 20.7846 22.1154 24 22.1154Z" stroke="black" stroke-width="3" stroke-linecap="round" stroke-linejoin="round"/>
<path d="M1.875 44.6623C3.2803 43.1276 4.98954 41.9022 6.89404 41.0638C8.79854 40.2254 10.8566 39.7925 12.9375 39.7925C15.0184 39.7925 17.0765 40.2254 18.981 41.0638C20.8855 41.9022 22.5947 43.1276 24 44.6623C22.5947 46.1969 20.8855 47.4224 18.981 48.2607C17.0765 49.0991 15.0184 49.5321 12.9375 49.5321C10.8566 49.5321 8.79854 49.0991 6.89404 48.2607C4.98954 47.4224 3.2803 46.1969 1.875 44.6623Z" stroke="black" stroke-width="3" stroke-linecap="round" stroke-linejoin="round"/>
<path d="M46.125 38.7091C44.7197 40.2438 43.0105 41.4692 41.106 42.3076C39.2015 43.146 37.1434 43.5789 35.0625 43.5789C32.9816 43.5789 30.9235 43.146 29.019 42.3076C27.1145 41.4692 25.4053 40.2438 24 38.7091C25.4053 37.1745 27.1145 35.9491 29.019 35.1107C30.9235 34.2723 32.9816 33.8394 35.0625 33.8394C37.1434 33.8394 39.2015 34.2723 41.106 35.1107C43.0105 35.9491 44.7197 37.1745 46.125 38.7091Z" stroke="black" stroke-width="3" stroke-linecap="round" stroke-linejoin="round"/>
<path d="M24 38.709H35.2125" stroke="black" stroke-width="3" stroke-linecap="round" stroke-linejoin="round"/>
<path d="M24 44.6621H13.65" stroke="black" stroke-width="3" stroke-linecap="round" stroke-linejoin="round"/>
</svg>
