<svg width="48" height="56" viewBox="0 0 48 56" fill="none" xmlns="http://www.w3.org/2000/svg">
<path d="M1.06876 9.75022C0.821238 9.98675 0.643199 10.2865 0.553956 10.6171C0.464713 10.9476 0.467672 11.2963 0.562513 11.6252C2.26585 17.1849 5.16488 22.3046 9.05626 26.6252C10.4438 28.1065 11.85 29.5127 13.2375 30.769H9.00001C8.50273 30.769 8.02582 30.9665 7.67419 31.3181C7.32256 31.6698 7.12501 32.1467 7.12501 32.644V38.269C7.12501 38.7663 7.32256 39.2432 7.67419 39.5948C8.02582 39.9464 8.50273 40.144 9.00001 40.144H9.22501L10.875 53.4752C10.9303 53.9326 11.152 54.3535 11.4978 54.6579C11.8436 54.9622 12.2894 55.1285 12.75 55.1252H35.25C35.7107 55.1285 36.1564 54.9622 36.5022 54.6579C36.8481 54.3535 37.0697 53.9326 37.125 53.4752L38.775 40.1252H39C39.4973 40.1252 39.9742 39.9277 40.3258 39.576C40.6775 39.2244 40.875 38.7475 40.875 38.2502V32.6252C40.875 32.1279 40.6775 31.651 40.3258 31.2994C39.9742 30.9478 39.4973 30.7502 39 30.7502H34.65C36.0563 29.4565 37.5 28.0315 38.8875 26.494C42.7444 22.1669 45.6054 17.0466 47.2688 11.494C47.3502 11.1749 47.3463 10.84 47.2572 10.523C47.1682 10.206 46.9972 9.91802 46.7616 9.68805C46.5259 9.45807 46.2338 9.29422 45.9147 9.21297C45.5956 9.13173 45.2607 9.13595 44.9438 9.22522C42.2792 10.1147 39.7541 11.3773 37.4438 12.9752C37.814 10.1595 37.7761 7.30512 37.3313 4.50022C37.2706 4.18876 37.1319 3.89779 36.9281 3.65455C36.7243 3.41132 36.4622 3.22378 36.1662 3.10949C35.8701 2.99521 35.55 2.95792 35.2356 3.00111C34.9212 3.04431 34.623 3.16658 34.3688 3.35647C32.217 5.12077 30.3236 7.17834 28.7438 9.46897C28.0859 6.74783 27.0442 4.13414 25.65 1.70647C25.4995 1.40251 25.2626 1.14968 24.9692 0.979598C24.6757 0.809516 24.3386 0.729731 24 0.750221C23.6796 0.751558 23.3649 0.834985 23.0859 0.992542C22.8069 1.1501 22.5729 1.37653 22.4063 1.65022C20.9768 4.14494 19.9218 6.83619 19.275 9.63772C17.6336 7.2765 15.6637 5.16145 13.425 3.35647C13.1708 3.16658 12.8725 3.04431 12.5582 3.00111C12.2438 2.95792 11.9236 2.99521 11.6276 3.10949C11.3316 3.22378 11.0694 3.41132 10.8657 3.65455C10.6619 3.89779 10.5232 4.18876 10.4625 4.50022C10.0599 7.2669 10.0599 10.0773 10.4625 12.844C8.14803 11.2953 5.62194 10.089 2.96251 9.26272C2.63256 9.16188 2.28118 9.15403 1.94705 9.24004C1.61293 9.32606 1.30901 9.50259 1.06876 9.75022ZM33.6 51.3752H14.4L12.9938 40.1252H35.0063L33.6 51.3752ZM37.125 36.3752H10.875V34.5002H37.125V36.3752ZM36.1125 23.9815C34.8188 25.4065 33.4875 26.7377 32.1938 27.9377L32.3063 27.6565C32.7375 26.8315 33.15 25.9877 33.5625 25.069L33.7313 24.6752C34.1625 23.7002 34.5938 22.8002 34.9875 21.6752C35.3813 20.5502 35.7375 19.669 36.0938 18.6377C37.9221 16.9109 39.9864 15.4525 42.225 14.3065C40.7272 17.8424 38.6626 21.1103 36.1125 23.9815ZM33.9188 8.85022C33.9407 11.6235 33.523 14.3827 32.6813 17.0252C32.325 18.0565 31.95 19.144 31.5188 20.2502L30.8438 21.919L30.6 22.444L30.15 23.5127C30.0375 23.719 29.9438 23.9252 29.85 24.1315C29.7563 24.3377 29.5688 24.7502 29.4188 25.0315C29.2688 25.3127 29.2125 25.4627 29.1188 25.669C29.025 25.8752 28.8375 26.2127 28.7063 26.4752L28.3688 27.0752C28.2375 27.319 28.1063 27.5815 27.9563 27.8065L27.6563 28.3502L27.225 29.044C27.1313 29.2127 27.0188 29.3627 26.925 29.5127L26.4938 30.1502C26.4 30.2815 26.3063 30.4127 26.2313 30.544L26.1 30.694H24.9375C24.9375 30.4877 24.9375 30.3002 24.9375 30.0565C24.9375 29.4377 25.125 28.7627 25.2563 28.0502C25.2563 27.8252 25.3688 27.5627 25.4063 27.3377C25.5188 26.8315 25.6125 26.344 25.7438 25.819C26.3398 23.4699 27.0787 21.1593 27.9563 18.9002C28.4063 17.7752 28.8563 16.6877 29.325 15.6565C30.4935 13.1629 32.0433 10.8666 33.9188 8.85022ZM24 7.03147C24.9312 9.43698 25.5183 11.9619 25.7438 14.5315C25.6921 14.6343 25.6482 14.7408 25.6125 14.8502C25.2125 15.7127 24.8375 16.6127 24.4875 17.5502L23.925 19.0315C23.7625 18.544 23.575 18.0565 23.3625 17.569C23.025 16.6877 22.6688 15.8627 22.3125 15.0565L22.2 14.8127C22.418 12.1452 23.0244 9.52376 24 7.03147ZM18.6 16.0127C19.0313 16.9502 19.4625 17.8877 19.875 18.994C20.2875 20.1002 20.7375 21.2815 21.1125 22.4065C21.225 22.7815 21.3188 23.119 21.4313 23.4752C21.6375 24.1502 21.8438 24.8252 22.0125 25.4627C22.1813 26.1002 21.825 26.3065 21.75 26.719C21.675 27.1315 21.6188 27.2815 21.5625 27.544C21.4313 28.294 21.3188 29.0065 21.2438 29.6815C21.2355 29.7437 21.2355 29.8067 21.2438 29.869L21.1313 29.7002C20.7688 29.1752 20.4125 28.6127 20.0625 28.0127L19.9125 27.7315C19.575 27.1502 19.2375 26.5127 18.9 25.8565L18.7313 25.5377C18.375 24.8252 18.0188 24.0752 17.6625 23.3065C17.6625 23.1565 17.5313 22.9877 17.4563 22.8377C17.1 22.0315 16.7438 21.2065 16.4063 20.3627C15.975 19.2377 15.5625 18.1315 15.2063 17.0252C14.3488 14.4038 13.906 11.6645 13.8938 8.90647C15.836 11.0094 17.431 13.4082 18.6188 16.0127H18.6ZM11.7938 18.6752L11.925 19.0315C12.225 19.9127 12.5625 20.8127 12.9188 21.7502C13.275 22.6877 13.7438 23.7565 14.175 24.7315C14.2487 24.8636 14.3114 25.0016 14.3625 25.144C14.775 26.044 15.2063 26.9065 15.6375 27.7315L15.75 27.9565C14.4563 26.794 13.125 25.4627 11.8125 24.0565C9.24375 21.1987 7.15426 17.9441 5.62501 14.419C7.86558 15.55 9.94104 16.982 11.7938 18.6752Z" fill="black"/>
</svg>
