<svg width="47" height="52" viewBox="0 0 47 52" fill="none" xmlns="http://www.w3.org/2000/svg">
<mask id="path-1-inside-1_495_230" fill="white">
<path fill-rule="evenodd" clip-rule="evenodd" d="M29.2739 14.0815C29.4611 14.9293 29.6879 15.7807 29.8007 16.6321C29.8019 16.6447 29.8043 16.6573 29.8067 16.6699C29.3177 17.1559 28.8461 17.6557 28.4021 18.1807C26.4329 20.5063 24.5357 23.0083 22.7735 25.5859C22.0385 24.5305 21.8837 23.3995 21.7949 22.1485C21.8093 22.1353 21.8237 22.1209 21.8369 22.1059C22.4039 21.4771 22.6373 20.6647 23.1107 19.9831C23.7863 19.0099 24.5633 18.1369 25.1411 17.0941C25.6541 16.1689 25.8545 14.8771 25.7285 13.6201C25.6079 12.4183 25.1885 11.2561 24.5117 10.4713C24.5051 10.4593 24.4979 10.4473 24.4907 10.4359C24.3467 10.2043 24.0695 10.1047 23.8193 10.1755C23.7299 10.1971 23.6441 10.2397 23.5703 10.3033C22.0295 11.2993 21.1271 12.7849 20.2205 14.3377C19.6163 15.3733 19.0517 16.5139 19.0601 17.7469C19.0697 19.1917 19.7375 20.6053 20.5667 21.7615C20.6807 23.5567 20.8577 25.1215 22.0211 26.5837C22.0355 26.6017 22.0505 26.6185 22.0667 26.6347L22.0649 26.6377C21.8441 26.9701 21.6251 27.3043 21.4079 27.6403C20.9321 28.3771 20.4659 29.1211 20.0105 29.8717C19.7957 30.2257 19.5833 30.5809 19.3739 30.9379C19.3217 31.0267 19.2695 31.1161 19.2173 31.2049C19.1729 31.2817 19.1279 31.3585 19.0835 31.4359C19.0175 31.5517 18.9521 31.6687 18.8885 31.7863C18.5867 32.3395 18.3107 32.9059 18.0485 33.4783L18.0407 33.4957C17.9675 33.1435 17.8859 32.7925 17.8115 32.4421C17.6393 31.6297 17.4953 30.8059 17.3531 29.9857C18.0983 29.2999 18.7667 28.7551 19.2629 27.8215C20.0459 26.3491 20.2613 24.3181 19.7723 22.5727C19.4387 21.3823 18.7811 20.3269 17.7809 19.6453C17.7503 19.6069 17.7143 19.5721 17.6735 19.5415C17.4083 19.3429 17.0321 19.3969 16.8335 19.6615C16.3853 20.2597 15.8273 20.7295 15.4859 21.4105C14.9267 22.5271 14.7851 23.8231 14.8037 25.0543C14.8289 26.7397 14.9675 28.3387 16.1333 29.5933C16.1063 29.6809 16.0991 29.7763 16.1159 29.8723C16.2779 30.8119 16.4405 31.7587 16.6379 32.6911C16.8557 33.7207 17.1773 34.7551 17.0375 35.8225C17.0369 35.8249 17.0369 35.8279 17.0363 35.8303C16.7351 36.5503 16.4327 37.2691 16.1081 37.9771C15.4757 39.3559 14.8253 40.7533 14.2097 42.1705C14.1827 40.0609 13.9847 37.9117 14.0267 35.9095C14.1461 30.2461 14.7443 24.8143 14.1035 19.1479C14.1053 19.1461 14.1071 19.1449 14.1089 19.1431C15.2651 18.1597 15.6545 16.6921 15.9101 15.2671C16.2269 13.5037 16.2143 11.2177 15.5177 9.32046C15.0275 7.98366 14.2013 6.83886 12.9473 6.15306C12.7133 6.02526 12.4313 6.06966 12.2477 6.24366C12.2135 6.26946 12.1823 6.29946 12.1541 6.33366C10.6739 8.10846 9.06769 10.7827 8.76049 13.3303C8.54209 15.1429 8.95969 16.8949 10.4465 18.2731C11.1413 18.9169 12.0881 19.1401 12.9341 19.5097L12.9359 19.5103C13.2983 22.8781 13.2221 26.1643 13.0805 29.4685C12.4961 29.1787 11.9219 28.8373 11.3945 28.4575C11.3897 28.4353 11.3831 28.4131 11.3759 28.3909C10.1507 24.8125 8.26549 20.6737 4.22989 19.6051C3.06349 19.2967 1.76569 19.3009 0.567488 19.3759C0.236888 19.3963 -0.0145122 19.6813 0.00588779 20.0119C0.00948779 20.0629 0.0190878 20.1127 0.0340878 20.1589C-0.0595123 21.6265 0.00888748 23.1181 0.633488 24.4819C1.07929 25.4551 2.06449 26.2861 2.90389 26.9119C4.53529 28.1281 6.42409 28.9117 8.45989 29.1589C9.09109 29.2357 9.74149 29.2105 10.3823 29.1991C11.1815 29.8171 12.0995 30.3535 13.0229 30.7675C12.9449 32.4607 12.8633 34.1617 12.8273 35.8843C12.8255 35.9533 12.8243 36.0229 12.8237 36.0931C12.3629 35.7145 11.8781 35.3593 11.3723 35.0605C10.8401 32.6017 8.98309 30.6271 6.57529 29.8825C4.88569 29.3599 2.62909 29.4841 0.913088 29.8819C0.775088 29.9137 0.659888 29.9905 0.578288 30.0937C0.400088 30.2341 0.310088 30.4705 0.366488 30.7057C0.550688 31.4683 0.869288 32.2129 1.31269 32.8597C1.81309 33.5893 2.29729 34.2889 3.01729 34.8241C5.08009 36.3559 8.15209 36.3331 10.6361 36.0205C11.4335 36.4705 12.1709 37.0855 12.8447 37.7023C12.9317 40.3399 13.2161 43.1275 12.8033 45.6649C12.1811 47.3773 11.6651 49.1191 11.3393 50.8915C11.2793 51.2173 11.4953 51.5299 11.8211 51.5899C12.1463 51.6499 12.4595 51.4339 12.5195 51.1087C12.8327 49.4059 13.3271 47.7331 13.9229 46.0891C13.9421 46.0495 13.9577 46.0075 13.9685 45.9631C14.1065 45.5863 14.2493 45.2107 14.3969 44.8369C14.4749 44.7943 14.5445 44.7337 14.5991 44.6563C16.0829 42.5509 18.1151 40.9657 20.2355 39.5131C20.2547 39.5053 20.2745 39.4963 20.2937 39.4861C21.6083 38.7907 23.1185 38.4697 24.6059 38.4703C24.7709 39.6583 25.0673 40.9327 25.8911 41.8363C26.8877 42.9295 28.5407 43.4863 29.9441 43.7269C30.9095 43.8925 31.8743 44.0791 32.8541 44.1349C33.8099 44.1901 34.7627 44.1115 35.7131 44.1475C36.0443 44.1595 36.3227 43.9009 36.3353 43.5703C36.3383 43.4881 36.3251 43.4089 36.2975 43.3363C36.3059 43.2625 36.3005 43.1863 36.2795 43.1107C35.9645 41.9659 35.8085 40.5187 35.0771 39.5563C34.4471 38.7277 33.2819 38.1535 32.3471 37.7749C30.0815 36.8563 27.5219 36.5761 25.1663 37.2847C24.6197 37.2577 24.0671 37.2697 23.5175 37.3225L23.5181 37.3219C24.6653 36.5431 25.7633 35.7439 26.8523 34.9489C28.2473 34.1095 29.6507 33.4105 31.2917 33.2311C31.6013 33.1975 31.9175 33.1927 32.2337 33.2005C32.7137 34.5943 33.7385 35.8075 34.8365 36.7531C35.1869 37.0555 35.5181 37.4389 35.9315 37.6549C37.1981 38.3179 38.8715 38.6671 40.2923 38.5363C42.1109 38.3689 43.8977 37.4317 45.3617 36.3805C45.3671 36.3769 45.3725 36.3727 45.3779 36.3685C45.4355 36.3403 45.4895 36.3013 45.5375 36.2533C45.7703 36.0181 45.7685 35.6377 45.5333 35.4049C44.5595 34.4413 43.4531 33.3379 42.2075 32.7445C41.3843 32.3521 40.4063 32.2465 39.5165 32.1139C37.5113 31.8145 35.4089 31.7863 33.3893 32.0701C33.3467 32.0575 33.3017 32.0503 33.2555 32.0473C32.5655 32.0113 31.8497 31.9633 31.1609 32.0383C31.0835 32.0467 31.0061 32.0563 30.9293 32.0671C31.7525 31.5229 32.5985 30.9967 33.4829 30.4981C34.7051 31.1953 36.0971 31.1437 37.4987 30.9811C39.4829 30.7507 41.4587 30.0691 42.9947 28.7563C43.7651 28.0987 44.2361 27.2701 44.7995 26.4505C45.2951 25.7281 45.8585 25.0753 46.2929 24.3109C46.3253 24.2539 46.3475 24.1933 46.3595 24.1327C46.3799 24.0907 46.3961 24.0457 46.4063 23.9977C46.4771 23.6743 46.2719 23.3545 45.9479 23.2837C42.1961 22.4641 38.5079 24.9793 35.7629 27.1513C34.8791 27.8509 33.9791 28.5079 33.1169 29.2321C33.0635 29.2645 33.0143 29.3053 32.9717 29.3551C32.9333 29.3881 32.8997 29.4253 32.8721 29.4649C30.4799 30.8161 28.3625 32.3659 26.2121 33.9337C26.2007 33.9403 26.1899 33.9469 26.1785 33.9541C26.1395 33.9775 26.1035 34.0051 26.0723 34.0357C25.0175 34.8043 23.9537 35.5759 22.8437 36.3295C20.4827 37.9333 17.9471 39.4705 15.8423 41.4409C16.2911 40.4437 16.7501 39.4561 17.1989 38.4775C17.9099 36.9271 18.5099 35.3215 19.2305 33.7753C19.2617 33.7471 19.2905 33.7147 19.3157 33.6793C20.0717 32.6137 20.8649 32.0863 22.0169 31.6561C22.6835 31.7839 23.3255 31.9303 24.0137 31.9177C24.6209 31.9063 25.2233 31.8223 25.8173 31.6957C26.2151 31.6105 26.6111 31.5265 27.0011 31.4101C28.1609 31.0651 29.7203 30.3583 30.6893 29.3071C31.4135 28.5211 31.8233 27.5521 31.6187 26.4085C31.5881 26.2363 31.4867 26.0947 31.3493 26.0077C31.2803 25.9237 31.1879 25.8577 31.0775 25.8211C28.3529 24.9091 25.9745 26.3587 24.0359 28.0987C23.2247 28.8265 22.4087 29.6101 21.7409 30.4789C21.4091 30.5977 21.1031 30.7225 20.8163 30.8593C22.4327 28.1659 24.2333 25.4875 26.1479 22.9357C26.1821 22.9291 26.2157 22.9195 26.2493 22.9063C28.0541 22.2061 29.8691 21.9151 31.7783 21.7939C31.8227 21.8389 31.8755 21.8767 31.9349 21.9067C34.7861 23.3323 38.7497 23.6185 41.4485 21.5815C42.5693 20.7355 43.2221 19.4959 43.7699 18.2437C43.9025 17.9401 43.7639 17.5861 43.4603 17.4535C43.4459 17.4469 43.4315 17.4415 43.4171 17.4367C42.5165 16.6723 40.9895 16.3897 39.8807 16.3711C36.5321 16.3135 33.8879 18.1075 31.8311 20.5885C30.3233 20.6785 28.8719 20.8681 27.4403 21.2551C28.0571 20.4727 28.6835 19.7047 29.3177 18.9559C31.0067 16.9609 33.1103 15.3265 34.9673 13.4827C35.0255 13.4911 35.0861 13.4911 35.1473 13.4815C41.2157 12.5119 46.8413 7.93146 45.5543 1.16406C45.5477 1.12806 45.5375 1.09386 45.5255 1.06146C45.5723 0.960662 45.5915 0.846062 45.5753 0.727262C45.5309 0.399662 45.2279 0.169262 44.8997 0.214262C38.4149 1.10166 34.6769 6.10566 34.3655 12.3865C33.2471 13.5241 32.0285 14.5753 30.8549 15.6667C30.7157 14.9605 30.5327 14.2555 30.3875 13.5535C31.7213 11.6509 32.6327 9.10086 32.6759 6.65946C32.7215 4.10046 31.8227 1.66566 29.5355 0.150062C29.4749 0.109862 29.4101 0.0822621 29.3429 0.0666621C29.1035 -0.0575379 28.8005 -0.00653765 28.6157 0.205862C28.0613 0.843062 27.6239 1.58346 27.2441 2.33406C26.3759 4.05126 25.5389 6.60126 25.5581 8.87046C25.5791 11.2999 26.5457 13.4101 29.2739 14.0815ZM35.0045 42.9397C34.8065 42.0295 34.6649 40.9975 34.1213 40.2823C33.6143 39.6145 32.6495 39.1921 31.8959 38.8867C30.3371 38.2549 28.6223 37.9525 26.9555 38.1397C28.6631 38.7289 30.1367 39.5461 31.6817 40.6627C31.8161 40.7593 31.8467 40.9471 31.7495 41.0815C31.6523 41.2153 31.4645 41.2459 31.3307 41.1487C29.5565 39.8671 27.8807 38.9917 25.8071 38.4097C25.9331 39.3403 26.1395 40.3279 26.7779 41.0281C27.6017 41.9311 28.9877 42.3451 30.1469 42.5443C31.0679 42.7021 31.9883 42.8833 32.9225 42.9373C33.6179 42.9769 34.3121 42.9451 35.0045 42.9397ZM44.1713 35.7451C43.4243 35.0125 42.6041 34.2625 41.6915 33.8281C40.9739 33.4861 40.1159 33.4165 39.3395 33.3007C37.9829 33.0979 36.5789 33.0265 35.1905 33.1009C36.9419 33.5857 38.6207 34.3741 40.1165 35.3797C40.2539 35.4721 40.2905 35.6587 40.1981 35.7961C40.1057 35.9335 39.9191 35.9701 39.7817 35.8777C37.9343 34.6351 35.7977 33.7363 33.5945 33.3559C34.0601 34.3201 34.8245 35.1589 35.6201 35.8441C35.9027 36.0883 36.1541 36.4171 36.4877 36.5917C37.5611 37.1533 38.9783 37.4521 40.1825 37.3411C41.5949 37.2115 42.9779 36.5365 44.1713 35.7451ZM9.82789 34.1899C9.14929 32.6881 7.83229 31.5277 6.22069 31.0291C4.87789 30.6139 3.13129 30.6757 1.68589 30.9457C1.83709 31.3825 2.04289 31.8025 2.30269 32.1811C2.72689 32.8003 3.12229 33.4069 3.73309 33.8605C5.39929 35.0983 7.81789 35.1187 9.90169 34.8985C8.45869 34.1599 6.99049 33.5461 5.39209 33.2185C5.23009 33.1849 5.12509 33.0265 5.15869 32.8645C5.19169 32.7019 5.35069 32.5975 5.51269 32.6305C7.03669 32.9431 8.44729 33.5053 9.82789 34.1899ZM30.4679 26.8891C28.2827 26.2849 26.4077 27.5827 24.8375 28.9921C24.5909 29.2129 24.3443 29.4391 24.1013 29.6713C25.1033 29.2609 26.1053 28.8535 27.0167 28.2637C27.1559 28.1737 27.3419 28.2133 27.4319 28.3525C27.5219 28.4911 27.4817 28.6771 27.3431 28.7671C26.0789 29.5855 24.6455 30.0625 23.2727 30.6691C23.5079 30.7021 23.7461 30.7225 23.9909 30.7177C24.5219 30.7081 25.0481 30.6325 25.5671 30.5221C25.9337 30.4435 26.2991 30.3673 26.6591 30.2605C27.4883 30.0133 28.5623 29.5621 29.3783 28.8949C30.0179 28.3717 30.5051 27.7123 30.4679 26.8891ZM44.8571 24.3361C43.4873 24.2395 42.1427 24.6205 40.8737 25.2187C39.2687 25.9759 37.7825 27.0835 36.5075 28.0927C35.9603 28.5253 35.4077 28.9411 34.8611 29.3677C36.6095 28.8595 38.3621 28.0411 39.7733 26.9575C39.9047 26.8567 40.0931 26.8813 40.1939 27.0127C40.2947 27.1435 40.2701 27.3325 40.1387 27.4333C38.7479 28.5019 37.0385 29.3233 35.3159 29.8573C35.9759 29.9407 36.6689 29.8693 37.3607 29.7889C39.1109 29.5855 40.8599 29.0017 42.2153 27.8443C42.9029 27.2563 43.3073 26.5033 43.8101 25.7713C44.1479 25.2787 44.5205 24.8221 44.8571 24.3361ZM17.3927 20.8573C17.0855 21.1963 16.7717 21.5233 16.5593 21.9475C16.0859 22.8931 15.9881 23.9941 16.0037 25.0363C16.0187 26.0635 16.0409 27.0655 16.4459 27.9343C16.4867 26.6869 16.4603 25.4113 16.7435 24.1903C16.7807 24.0295 16.9421 23.9287 17.1035 23.9659C17.2649 24.0037 17.3651 24.1651 17.3279 24.3259C17.0255 25.6285 17.0921 26.9965 17.0309 28.3213C17.0255 28.4407 16.9505 28.5409 16.8467 28.5841C16.8839 28.6309 16.9223 28.6771 16.9631 28.7221C17.4401 28.2937 17.8721 27.8815 18.2033 27.2581C18.7457 26.2387 18.9515 24.8953 18.7721 23.6365C18.6179 22.5577 18.1805 21.5347 17.3927 20.8573ZM9.96949 28.0093C9.45229 26.5831 8.81809 25.1017 7.94869 23.8291C6.97129 22.3993 5.69449 21.2341 3.92269 20.7655C3.06109 20.5375 2.11969 20.5093 1.21369 20.5441C1.15789 21.7153 1.22749 22.8967 1.72489 23.9827C2.09089 24.7825 2.93149 25.4353 3.62089 25.9495C5.08489 27.0409 6.77869 27.7459 8.60449 27.9679C8.77669 27.9889 8.95009 28.0009 9.12409 28.0081C8.41489 27.1765 7.75549 26.3023 6.95629 25.5505C6.06289 24.7087 5.01949 24.1165 3.93109 23.5621C3.78349 23.4865 3.72469 23.3059 3.79969 23.1583C3.87529 23.0107 4.05589 22.9519 4.20349 23.0275C5.34289 23.6077 6.43189 24.2329 7.36789 25.1137C8.30929 25.9999 9.06049 27.0541 9.92269 28.0105L9.96949 28.0093ZM42.4667 18.2167C41.7539 17.7241 40.6595 17.5843 39.8603 17.5705C37.0541 17.5225 34.8299 18.9835 33.0551 21.0025C35.0561 20.5279 36.9827 20.1253 38.9189 19.3567C39.0725 19.2961 39.2471 19.3711 39.3083 19.5253C39.3695 19.6789 39.2939 19.8535 39.1397 19.9147C37.4117 20.5999 35.6921 21.0007 33.9209 21.4153C36.1727 22.1173 38.8151 22.0651 40.7255 20.6233C41.5433 20.0059 42.0461 19.1269 42.4667 18.2167ZM23.8445 11.5771C22.6955 12.4585 21.9905 13.6867 21.2567 14.9425C20.7587 15.7963 20.2535 16.7227 20.2601 17.7391C20.2661 18.6487 20.6027 19.5373 21.0665 20.3323C21.1277 18.5791 21.3785 16.7437 22.2455 15.2311C22.3277 15.0877 22.5113 15.0379 22.6547 15.1201C22.7981 15.2023 22.8479 15.3859 22.7657 15.5293C21.9875 16.8877 21.7439 18.5215 21.6743 20.1043C21.8105 19.8277 21.9485 19.5523 22.1255 19.2985C22.7777 18.3589 23.5331 17.5195 24.0917 16.5121C24.5003 15.7753 24.6347 14.7415 24.5345 13.7401C24.4547 12.9475 24.2291 12.1693 23.8445 11.5771ZM12.7811 7.46526C11.7377 8.79066 10.6721 10.5505 10.1801 12.3379C9.67909 14.1583 9.77689 16.0153 11.2625 17.3935C11.7119 17.8099 12.2969 17.9965 12.8687 18.1993C12.0719 16.3663 11.4005 14.6551 11.5469 12.5857C11.5589 12.4201 11.7023 12.2959 11.8679 12.3073C12.0329 12.3193 12.1571 12.4627 12.1457 12.6277C12.0023 14.6467 12.6923 16.3039 13.4777 18.0961C14.2967 17.2993 14.5325 16.1491 14.7293 15.0553C15.0125 13.4773 15.0143 11.4313 14.3915 9.73386C14.0585 8.82726 13.5455 8.02026 12.7811 7.46526ZM29.2055 1.38786C28.8617 1.85286 28.5749 2.36226 28.3151 2.87586C27.5201 4.44846 26.7407 6.78126 26.7581 8.86026C26.7725 10.5565 27.3401 12.0841 29.0099 12.7417C28.8917 10.7107 28.7879 8.55006 28.9067 6.52146C28.9163 6.35646 29.0579 6.22986 29.2235 6.23946C29.3885 6.24906 29.5151 6.39126 29.5055 6.55686C29.3909 8.51826 29.4875 10.6045 29.6009 12.5749C30.6989 10.8919 31.4393 8.72166 31.4759 6.63786C31.5119 4.61646 30.8783 2.67186 29.2055 1.38786ZM44.3981 1.51206C45.3875 7.10706 40.9745 10.9219 35.9903 12.0931C37.8917 10.3543 39.9185 8.77626 41.4569 6.66006C41.5541 6.52626 41.5247 6.33846 41.3903 6.24126C41.2565 6.14346 41.0687 6.17346 40.9715 6.30726C39.4685 8.37486 37.4891 9.91806 35.6279 11.6119C36.1613 6.53526 39.2225 2.50326 44.3981 1.51206Z"/>
</mask>
<path fill-rule="evenodd" clip-rule="evenodd" d="M29.2739 14.0815C29.4611 14.9293 29.6879 15.7807 29.8007 16.6321C29.8019 16.6447 29.8043 16.6573 29.8067 16.6699C29.3177 17.1559 28.8461 17.6557 28.4021 18.1807C26.4329 20.5063 24.5357 23.0083 22.7735 25.5859C22.0385 24.5305 21.8837 23.3995 21.7949 22.1485C21.8093 22.1353 21.8237 22.1209 21.8369 22.1059C22.4039 21.4771 22.6373 20.6647 23.1107 19.9831C23.7863 19.0099 24.5633 18.1369 25.1411 17.0941C25.6541 16.1689 25.8545 14.8771 25.7285 13.6201C25.6079 12.4183 25.1885 11.2561 24.5117 10.4713C24.5051 10.4593 24.4979 10.4473 24.4907 10.4359C24.3467 10.2043 24.0695 10.1047 23.8193 10.1755C23.7299 10.1971 23.6441 10.2397 23.5703 10.3033C22.0295 11.2993 21.1271 12.7849 20.2205 14.3377C19.6163 15.3733 19.0517 16.5139 19.0601 17.7469C19.0697 19.1917 19.7375 20.6053 20.5667 21.7615C20.6807 23.5567 20.8577 25.1215 22.0211 26.5837C22.0355 26.6017 22.0505 26.6185 22.0667 26.6347L22.0649 26.6377C21.8441 26.9701 21.6251 27.3043 21.4079 27.6403C20.9321 28.3771 20.4659 29.1211 20.0105 29.8717C19.7957 30.2257 19.5833 30.5809 19.3739 30.9379C19.3217 31.0267 19.2695 31.1161 19.2173 31.2049C19.1729 31.2817 19.1279 31.3585 19.0835 31.4359C19.0175 31.5517 18.9521 31.6687 18.8885 31.7863C18.5867 32.3395 18.3107 32.9059 18.0485 33.4783L18.0407 33.4957C17.9675 33.1435 17.8859 32.7925 17.8115 32.4421C17.6393 31.6297 17.4953 30.8059 17.3531 29.9857C18.0983 29.2999 18.7667 28.7551 19.2629 27.8215C20.0459 26.3491 20.2613 24.3181 19.7723 22.5727C19.4387 21.3823 18.7811 20.3269 17.7809 19.6453C17.7503 19.6069 17.7143 19.5721 17.6735 19.5415C17.4083 19.3429 17.0321 19.3969 16.8335 19.6615C16.3853 20.2597 15.8273 20.7295 15.4859 21.4105C14.9267 22.5271 14.7851 23.8231 14.8037 25.0543C14.8289 26.7397 14.9675 28.3387 16.1333 29.5933C16.1063 29.6809 16.0991 29.7763 16.1159 29.8723C16.2779 30.8119 16.4405 31.7587 16.6379 32.6911C16.8557 33.7207 17.1773 34.7551 17.0375 35.8225C17.0369 35.8249 17.0369 35.8279 17.0363 35.8303C16.7351 36.5503 16.4327 37.2691 16.1081 37.9771C15.4757 39.3559 14.8253 40.7533 14.2097 42.1705C14.1827 40.0609 13.9847 37.9117 14.0267 35.9095C14.1461 30.2461 14.7443 24.8143 14.1035 19.1479C14.1053 19.1461 14.1071 19.1449 14.1089 19.1431C15.2651 18.1597 15.6545 16.6921 15.9101 15.2671C16.2269 13.5037 16.2143 11.2177 15.5177 9.32046C15.0275 7.98366 14.2013 6.83886 12.9473 6.15306C12.7133 6.02526 12.4313 6.06966 12.2477 6.24366C12.2135 6.26946 12.1823 6.29946 12.1541 6.33366C10.6739 8.10846 9.06769 10.7827 8.76049 13.3303C8.54209 15.1429 8.95969 16.8949 10.4465 18.2731C11.1413 18.9169 12.0881 19.1401 12.9341 19.5097L12.9359 19.5103C13.2983 22.8781 13.2221 26.1643 13.0805 29.4685C12.4961 29.1787 11.9219 28.8373 11.3945 28.4575C11.3897 28.4353 11.3831 28.4131 11.3759 28.3909C10.1507 24.8125 8.26549 20.6737 4.22989 19.6051C3.06349 19.2967 1.76569 19.3009 0.567488 19.3759C0.236888 19.3963 -0.0145122 19.6813 0.00588779 20.0119C0.00948779 20.0629 0.0190878 20.1127 0.0340878 20.1589C-0.0595123 21.6265 0.00888748 23.1181 0.633488 24.4819C1.07929 25.4551 2.06449 26.2861 2.90389 26.9119C4.53529 28.1281 6.42409 28.9117 8.45989 29.1589C9.09109 29.2357 9.74149 29.2105 10.3823 29.1991C11.1815 29.8171 12.0995 30.3535 13.0229 30.7675C12.9449 32.4607 12.8633 34.1617 12.8273 35.8843C12.8255 35.9533 12.8243 36.0229 12.8237 36.0931C12.3629 35.7145 11.8781 35.3593 11.3723 35.0605C10.8401 32.6017 8.98309 30.6271 6.57529 29.8825C4.88569 29.3599 2.62909 29.4841 0.913088 29.8819C0.775088 29.9137 0.659888 29.9905 0.578288 30.0937C0.400088 30.2341 0.310088 30.4705 0.366488 30.7057C0.550688 31.4683 0.869288 32.2129 1.31269 32.8597C1.81309 33.5893 2.29729 34.2889 3.01729 34.8241C5.08009 36.3559 8.15209 36.3331 10.6361 36.0205C11.4335 36.4705 12.1709 37.0855 12.8447 37.7023C12.9317 40.3399 13.2161 43.1275 12.8033 45.6649C12.1811 47.3773 11.6651 49.1191 11.3393 50.8915C11.2793 51.2173 11.4953 51.5299 11.8211 51.5899C12.1463 51.6499 12.4595 51.4339 12.5195 51.1087C12.8327 49.4059 13.3271 47.7331 13.9229 46.0891C13.9421 46.0495 13.9577 46.0075 13.9685 45.9631C14.1065 45.5863 14.2493 45.2107 14.3969 44.8369C14.4749 44.7943 14.5445 44.7337 14.5991 44.6563C16.0829 42.5509 18.1151 40.9657 20.2355 39.5131C20.2547 39.5053 20.2745 39.4963 20.2937 39.4861C21.6083 38.7907 23.1185 38.4697 24.6059 38.4703C24.7709 39.6583 25.0673 40.9327 25.8911 41.8363C26.8877 42.9295 28.5407 43.4863 29.9441 43.7269C30.9095 43.8925 31.8743 44.0791 32.8541 44.1349C33.8099 44.1901 34.7627 44.1115 35.7131 44.1475C36.0443 44.1595 36.3227 43.9009 36.3353 43.5703C36.3383 43.4881 36.3251 43.4089 36.2975 43.3363C36.3059 43.2625 36.3005 43.1863 36.2795 43.1107C35.9645 41.9659 35.8085 40.5187 35.0771 39.5563C34.4471 38.7277 33.2819 38.1535 32.3471 37.7749C30.0815 36.8563 27.5219 36.5761 25.1663 37.2847C24.6197 37.2577 24.0671 37.2697 23.5175 37.3225L23.5181 37.3219C24.6653 36.5431 25.7633 35.7439 26.8523 34.9489C28.2473 34.1095 29.6507 33.4105 31.2917 33.2311C31.6013 33.1975 31.9175 33.1927 32.2337 33.2005C32.7137 34.5943 33.7385 35.8075 34.8365 36.7531C35.1869 37.0555 35.5181 37.4389 35.9315 37.6549C37.1981 38.3179 38.8715 38.6671 40.2923 38.5363C42.1109 38.3689 43.8977 37.4317 45.3617 36.3805C45.3671 36.3769 45.3725 36.3727 45.3779 36.3685C45.4355 36.3403 45.4895 36.3013 45.5375 36.2533C45.7703 36.0181 45.7685 35.6377 45.5333 35.4049C44.5595 34.4413 43.4531 33.3379 42.2075 32.7445C41.3843 32.3521 40.4063 32.2465 39.5165 32.1139C37.5113 31.8145 35.4089 31.7863 33.3893 32.0701C33.3467 32.0575 33.3017 32.0503 33.2555 32.0473C32.5655 32.0113 31.8497 31.9633 31.1609 32.0383C31.0835 32.0467 31.0061 32.0563 30.9293 32.0671C31.7525 31.5229 32.5985 30.9967 33.4829 30.4981C34.7051 31.1953 36.0971 31.1437 37.4987 30.9811C39.4829 30.7507 41.4587 30.0691 42.9947 28.7563C43.7651 28.0987 44.2361 27.2701 44.7995 26.4505C45.2951 25.7281 45.8585 25.0753 46.2929 24.3109C46.3253 24.2539 46.3475 24.1933 46.3595 24.1327C46.3799 24.0907 46.3961 24.0457 46.4063 23.9977C46.4771 23.6743 46.2719 23.3545 45.9479 23.2837C42.1961 22.4641 38.5079 24.9793 35.7629 27.1513C34.8791 27.8509 33.9791 28.5079 33.1169 29.2321C33.0635 29.2645 33.0143 29.3053 32.9717 29.3551C32.9333 29.3881 32.8997 29.4253 32.8721 29.4649C30.4799 30.8161 28.3625 32.3659 26.2121 33.9337C26.2007 33.9403 26.1899 33.9469 26.1785 33.9541C26.1395 33.9775 26.1035 34.0051 26.0723 34.0357C25.0175 34.8043 23.9537 35.5759 22.8437 36.3295C20.4827 37.9333 17.9471 39.4705 15.8423 41.4409C16.2911 40.4437 16.7501 39.4561 17.1989 38.4775C17.9099 36.9271 18.5099 35.3215 19.2305 33.7753C19.2617 33.7471 19.2905 33.7147 19.3157 33.6793C20.0717 32.6137 20.8649 32.0863 22.0169 31.6561C22.6835 31.7839 23.3255 31.9303 24.0137 31.9177C24.6209 31.9063 25.2233 31.8223 25.8173 31.6957C26.2151 31.6105 26.6111 31.5265 27.0011 31.4101C28.1609 31.0651 29.7203 30.3583 30.6893 29.3071C31.4135 28.5211 31.8233 27.5521 31.6187 26.4085C31.5881 26.2363 31.4867 26.0947 31.3493 26.0077C31.2803 25.9237 31.1879 25.8577 31.0775 25.8211C28.3529 24.9091 25.9745 26.3587 24.0359 28.0987C23.2247 28.8265 22.4087 29.6101 21.7409 30.4789C21.4091 30.5977 21.1031 30.7225 20.8163 30.8593C22.4327 28.1659 24.2333 25.4875 26.1479 22.9357C26.1821 22.9291 26.2157 22.9195 26.2493 22.9063C28.0541 22.2061 29.8691 21.9151 31.7783 21.7939C31.8227 21.8389 31.8755 21.8767 31.9349 21.9067C34.7861 23.3323 38.7497 23.6185 41.4485 21.5815C42.5693 20.7355 43.2221 19.4959 43.7699 18.2437C43.9025 17.9401 43.7639 17.5861 43.4603 17.4535C43.4459 17.4469 43.4315 17.4415 43.4171 17.4367C42.5165 16.6723 40.9895 16.3897 39.8807 16.3711C36.5321 16.3135 33.8879 18.1075 31.8311 20.5885C30.3233 20.6785 28.8719 20.8681 27.4403 21.2551C28.0571 20.4727 28.6835 19.7047 29.3177 18.9559C31.0067 16.9609 33.1103 15.3265 34.9673 13.4827C35.0255 13.4911 35.0861 13.4911 35.1473 13.4815C41.2157 12.5119 46.8413 7.93146 45.5543 1.16406C45.5477 1.12806 45.5375 1.09386 45.5255 1.06146C45.5723 0.960662 45.5915 0.846062 45.5753 0.727262C45.5309 0.399662 45.2279 0.169262 44.8997 0.214262C38.4149 1.10166 34.6769 6.10566 34.3655 12.3865C33.2471 13.5241 32.0285 14.5753 30.8549 15.6667C30.7157 14.9605 30.5327 14.2555 30.3875 13.5535C31.7213 11.6509 32.6327 9.10086 32.6759 6.65946C32.7215 4.10046 31.8227 1.66566 29.5355 0.150062C29.4749 0.109862 29.4101 0.0822621 29.3429 0.0666621C29.1035 -0.0575379 28.8005 -0.00653765 28.6157 0.205862C28.0613 0.843062 27.6239 1.58346 27.2441 2.33406C26.3759 4.05126 25.5389 6.60126 25.5581 8.87046C25.5791 11.2999 26.5457 13.4101 29.2739 14.0815ZM35.0045 42.9397C34.8065 42.0295 34.6649 40.9975 34.1213 40.2823C33.6143 39.6145 32.6495 39.1921 31.8959 38.8867C30.3371 38.2549 28.6223 37.9525 26.9555 38.1397C28.6631 38.7289 30.1367 39.5461 31.6817 40.6627C31.8161 40.7593 31.8467 40.9471 31.7495 41.0815C31.6523 41.2153 31.4645 41.2459 31.3307 41.1487C29.5565 39.8671 27.8807 38.9917 25.8071 38.4097C25.9331 39.3403 26.1395 40.3279 26.7779 41.0281C27.6017 41.9311 28.9877 42.3451 30.1469 42.5443C31.0679 42.7021 31.9883 42.8833 32.9225 42.9373C33.6179 42.9769 34.3121 42.9451 35.0045 42.9397ZM44.1713 35.7451C43.4243 35.0125 42.6041 34.2625 41.6915 33.8281C40.9739 33.4861 40.1159 33.4165 39.3395 33.3007C37.9829 33.0979 36.5789 33.0265 35.1905 33.1009C36.9419 33.5857 38.6207 34.3741 40.1165 35.3797C40.2539 35.4721 40.2905 35.6587 40.1981 35.7961C40.1057 35.9335 39.9191 35.9701 39.7817 35.8777C37.9343 34.6351 35.7977 33.7363 33.5945 33.3559C34.0601 34.3201 34.8245 35.1589 35.6201 35.8441C35.9027 36.0883 36.1541 36.4171 36.4877 36.5917C37.5611 37.1533 38.9783 37.4521 40.1825 37.3411C41.5949 37.2115 42.9779 36.5365 44.1713 35.7451ZM9.82789 34.1899C9.14929 32.6881 7.83229 31.5277 6.22069 31.0291C4.87789 30.6139 3.13129 30.6757 1.68589 30.9457C1.83709 31.3825 2.04289 31.8025 2.30269 32.1811C2.72689 32.8003 3.12229 33.4069 3.73309 33.8605C5.39929 35.0983 7.81789 35.1187 9.90169 34.8985C8.45869 34.1599 6.99049 33.5461 5.39209 33.2185C5.23009 33.1849 5.12509 33.0265 5.15869 32.8645C5.19169 32.7019 5.35069 32.5975 5.51269 32.6305C7.03669 32.9431 8.44729 33.5053 9.82789 34.1899ZM30.4679 26.8891C28.2827 26.2849 26.4077 27.5827 24.8375 28.9921C24.5909 29.2129 24.3443 29.4391 24.1013 29.6713C25.1033 29.2609 26.1053 28.8535 27.0167 28.2637C27.1559 28.1737 27.3419 28.2133 27.4319 28.3525C27.5219 28.4911 27.4817 28.6771 27.3431 28.7671C26.0789 29.5855 24.6455 30.0625 23.2727 30.6691C23.5079 30.7021 23.7461 30.7225 23.9909 30.7177C24.5219 30.7081 25.0481 30.6325 25.5671 30.5221C25.9337 30.4435 26.2991 30.3673 26.6591 30.2605C27.4883 30.0133 28.5623 29.5621 29.3783 28.8949C30.0179 28.3717 30.5051 27.7123 30.4679 26.8891ZM44.8571 24.3361C43.4873 24.2395 42.1427 24.6205 40.8737 25.2187C39.2687 25.9759 37.7825 27.0835 36.5075 28.0927C35.9603 28.5253 35.4077 28.9411 34.8611 29.3677C36.6095 28.8595 38.3621 28.0411 39.7733 26.9575C39.9047 26.8567 40.0931 26.8813 40.1939 27.0127C40.2947 27.1435 40.2701 27.3325 40.1387 27.4333C38.7479 28.5019 37.0385 29.3233 35.3159 29.8573C35.9759 29.9407 36.6689 29.8693 37.3607 29.7889C39.1109 29.5855 40.8599 29.0017 42.2153 27.8443C42.9029 27.2563 43.3073 26.5033 43.8101 25.7713C44.1479 25.2787 44.5205 24.8221 44.8571 24.3361ZM17.3927 20.8573C17.0855 21.1963 16.7717 21.5233 16.5593 21.9475C16.0859 22.8931 15.9881 23.9941 16.0037 25.0363C16.0187 26.0635 16.0409 27.0655 16.4459 27.9343C16.4867 26.6869 16.4603 25.4113 16.7435 24.1903C16.7807 24.0295 16.9421 23.9287 17.1035 23.9659C17.2649 24.0037 17.3651 24.1651 17.3279 24.3259C17.0255 25.6285 17.0921 26.9965 17.0309 28.3213C17.0255 28.4407 16.9505 28.5409 16.8467 28.5841C16.8839 28.6309 16.9223 28.6771 16.9631 28.7221C17.4401 28.2937 17.8721 27.8815 18.2033 27.2581C18.7457 26.2387 18.9515 24.8953 18.7721 23.6365C18.6179 22.5577 18.1805 21.5347 17.3927 20.8573ZM9.96949 28.0093C9.45229 26.5831 8.81809 25.1017 7.94869 23.8291C6.97129 22.3993 5.69449 21.2341 3.92269 20.7655C3.06109 20.5375 2.11969 20.5093 1.21369 20.5441C1.15789 21.7153 1.22749 22.8967 1.72489 23.9827C2.09089 24.7825 2.93149 25.4353 3.62089 25.9495C5.08489 27.0409 6.77869 27.7459 8.60449 27.9679C8.77669 27.9889 8.95009 28.0009 9.12409 28.0081C8.41489 27.1765 7.75549 26.3023 6.95629 25.5505C6.06289 24.7087 5.01949 24.1165 3.93109 23.5621C3.78349 23.4865 3.72469 23.3059 3.79969 23.1583C3.87529 23.0107 4.05589 22.9519 4.20349 23.0275C5.34289 23.6077 6.43189 24.2329 7.36789 25.1137C8.30929 25.9999 9.06049 27.0541 9.92269 28.0105L9.96949 28.0093ZM42.4667 18.2167C41.7539 17.7241 40.6595 17.5843 39.8603 17.5705C37.0541 17.5225 34.8299 18.9835 33.0551 21.0025C35.0561 20.5279 36.9827 20.1253 38.9189 19.3567C39.0725 19.2961 39.2471 19.3711 39.3083 19.5253C39.3695 19.6789 39.2939 19.8535 39.1397 19.9147C37.4117 20.5999 35.6921 21.0007 33.9209 21.4153C36.1727 22.1173 38.8151 22.0651 40.7255 20.6233C41.5433 20.0059 42.0461 19.1269 42.4667 18.2167ZM23.8445 11.5771C22.6955 12.4585 21.9905 13.6867 21.2567 14.9425C20.7587 15.7963 20.2535 16.7227 20.2601 17.7391C20.2661 18.6487 20.6027 19.5373 21.0665 20.3323C21.1277 18.5791 21.3785 16.7437 22.2455 15.2311C22.3277 15.0877 22.5113 15.0379 22.6547 15.1201C22.7981 15.2023 22.8479 15.3859 22.7657 15.5293C21.9875 16.8877 21.7439 18.5215 21.6743 20.1043C21.8105 19.8277 21.9485 19.5523 22.1255 19.2985C22.7777 18.3589 23.5331 17.5195 24.0917 16.5121C24.5003 15.7753 24.6347 14.7415 24.5345 13.7401C24.4547 12.9475 24.2291 12.1693 23.8445 11.5771ZM12.7811 7.46526C11.7377 8.79066 10.6721 10.5505 10.1801 12.3379C9.67909 14.1583 9.77689 16.0153 11.2625 17.3935C11.7119 17.8099 12.2969 17.9965 12.8687 18.1993C12.0719 16.3663 11.4005 14.6551 11.5469 12.5857C11.5589 12.4201 11.7023 12.2959 11.8679 12.3073C12.0329 12.3193 12.1571 12.4627 12.1457 12.6277C12.0023 14.6467 12.6923 16.3039 13.4777 18.0961C14.2967 17.2993 14.5325 16.1491 14.7293 15.0553C15.0125 13.4773 15.0143 11.4313 14.3915 9.73386C14.0585 8.82726 13.5455 8.02026 12.7811 7.46526ZM29.2055 1.38786C28.8617 1.85286 28.5749 2.36226 28.3151 2.87586C27.5201 4.44846 26.7407 6.78126 26.7581 8.86026C26.7725 10.5565 27.3401 12.0841 29.0099 12.7417C28.8917 10.7107 28.7879 8.55006 28.9067 6.52146C28.9163 6.35646 29.0579 6.22986 29.2235 6.23946C29.3885 6.24906 29.5151 6.39126 29.5055 6.55686C29.3909 8.51826 29.4875 10.6045 29.6009 12.5749C30.6989 10.8919 31.4393 8.72166 31.4759 6.63786C31.5119 4.61646 30.8783 2.67186 29.2055 1.38786ZM44.3981 1.51206C45.3875 7.10706 40.9745 10.9219 35.9903 12.0931C37.8917 10.3543 39.9185 8.77626 41.4569 6.66006C41.5541 6.52626 41.5247 6.33846 41.3903 6.24126C41.2565 6.14346 41.0687 6.17346 40.9715 6.30726C39.4685 8.37486 37.4891 9.91806 35.6279 11.6119C36.1613 6.53526 39.2225 2.50326 44.3981 1.51206Z" stroke="black" stroke-width="40" mask="url(#path-1-inside-1_495_230)"/>
</svg>
