<svg width="21" height="39" viewBox="0 0 21 39" fill="none" xmlns="http://www.w3.org/2000/svg">
<path d="M16.388 25.3658C16.7675 22.0435 16.3995 19.4545 15.924 17.6782C15.5915 16.3798 15.0739 15.1359 14.3871 13.9848C16.8493 12.9142 18.7909 10.9171 19.7917 8.42578C20.7926 5.93444 20.7723 3.1492 19.7352 0.672729L19.5845 0.312702C19.565 0.266119 19.5278 0.229193 19.4811 0.210037C19.4343 0.190882 19.3819 0.191064 19.3353 0.210543L18.9754 0.3613C16.7905 1.27639 14.9912 2.9218 13.8849 5.01636C12.7786 7.11093 12.434 9.52466 12.9099 11.8451C11.5898 9.87957 9.62898 8.43253 7.36158 7.75058C5.09418 7.06863 2.66048 7.19394 0.475119 8.10519L0.115156 8.25583C0.0920845 8.26548 0.0711418 8.27958 0.0535214 8.29733C0.0359011 8.31508 0.0219481 8.33613 0.0124616 8.35927C0.00297506 8.38241 -0.00186051 8.40719 -0.00176874 8.4322C-0.00167697 8.45721 0.00334015 8.48195 0.0129962 8.50502L0.163691 8.86505C1.19281 11.3283 3.14595 13.2904 5.60449 14.3308C8.06303 15.3712 10.8313 15.407 13.316 14.4307C13.6771 14.9904 14.3552 16.2036 14.8389 18.044C15.2415 19.5759 15.5553 21.7564 15.3218 24.5309C12.3793 22.4667 8.65055 21.7115 4.97309 22.5078C4.86588 22.5311 4.76761 22.5847 4.69005 22.6623C4.61249 22.7399 4.5589 22.8381 4.5357 22.9454C3.5771 27.3707 4.86386 31.8717 7.97776 34.9856C9.1808 36.1832 10.6086 37.1313 12.1792 37.7754C13.7498 38.4194 15.4322 38.7468 17.1297 38.7387C18.1008 38.7381 19.0691 38.6338 20.018 38.4276C20.1252 38.4044 20.2235 38.3508 20.301 38.2733C20.3786 38.1957 20.4322 38.0974 20.4554 37.9902C21.414 33.5649 20.1273 29.0639 17.0134 25.9499C16.8108 25.7473 16.6023 25.5526 16.388 25.3658ZM13.929 14.1327C13.837 14.2135 13.7214 14.2624 13.5994 14.2723C13.4774 14.2822 13.3555 14.2525 13.2517 14.1877C13.2261 14.1718 10.6699 12.5909 8.13245 11.9986C8.05862 11.9823 7.98876 11.9515 7.92692 11.908C7.86508 11.8645 7.81249 11.8092 7.7722 11.7452C7.7319 11.6812 7.70471 11.6099 7.69219 11.5353C7.67967 11.4608 7.68207 11.3845 7.69925 11.3108C7.71644 11.2372 7.74807 11.1677 7.79231 11.1064C7.83655 11.0451 7.89252 10.9932 7.95698 10.9537C8.02143 10.9142 8.09309 10.8878 8.1678 10.8762C8.2425 10.8646 8.31877 10.8679 8.39218 10.886C10.4674 11.3704 12.4848 12.4285 13.3787 12.9367C13.6399 11.9544 14.3035 9.75465 15.4236 7.92202C15.5026 7.79273 15.6297 7.70012 15.777 7.66456C15.9243 7.62901 16.0797 7.65342 16.209 7.73243C16.3383 7.81144 16.4309 7.93858 16.4665 8.08588C16.502 8.23317 16.4776 8.38855 16.3986 8.51785C15.0397 10.7413 14.3719 13.6716 14.3653 13.701C14.3413 13.8071 14.2875 13.904 14.2102 13.9805C14.1329 14.057 14.0353 14.1098 13.929 14.1327ZM5.579 23.5512C5.58842 23.5494 5.59786 23.5481 5.60726 23.5464C9.01795 24.1987 12.1484 25.8762 14.5805 28.3547C17.0126 30.8332 18.6307 33.9948 19.2184 37.4173C15.3576 38.0738 11.4932 36.885 8.78569 34.1776C6.03297 31.425 4.84835 27.4765 5.579 23.5512Z" fill="black"/>
</svg>
