<svg width="20" height="20" viewBox="0 0 20 20" fill="none" xmlns="http://www.w3.org/2000/svg">
<circle cx="10" cy="10" r="2.5" fill="black" fill-opacity="0.15"/>
<path d="M2.5 10L4.16667 10M4.16672 15.8333L5.83338 14.1667M10 15.8333L10 17.5M14.1667 14.1667L15.8333 15.8333M4.16667 4.16667L5.83333 5.83333M15.8333 10L17.5 10M14.1666 5.83333L15.8333 4.16667M10 2.5L10 4.16667M12.5 10C12.5 11.3807 11.3807 12.5 10 12.5C8.61929 12.5 7.5 11.3807 7.5 10C7.5 8.61929 8.61929 7.5 10 7.5C11.3807 7.5 12.5 8.61929 12.5 10Z" stroke="black" stroke-width="2" stroke-linecap="round" stroke-linejoin="round"/>
</svg>