<svg width="50" height="42" viewBox="0 0 50 42" fill="none" xmlns="http://www.w3.org/2000/svg">
<mask id="path-1-inside-1_494_317" fill="white">
<path d="M38.8721 17.2937C38.2349 17.3303 37.8174 17.1252 37.7661 17.0886L34.6021 19.1101C35.2979 20.2014 36.7334 20.9412 38.3447 21.0364C38.4692 21.0437 38.5938 21.0437 38.7183 21.0437C40.835 21.0437 42.915 19.9744 44.4897 18.0701C47.1777 14.8035 49.0674 11.3391 49.1479 11.1926L49.9976 9.61792L48.4668 8.69507C39.9707 3.59009 35.1147 6.01441 33.4229 7.29615C31.2402 8.95142 30.2441 11.6614 30.7935 14.3054C29.0503 15.4187 27.3145 16.825 25.9302 18.5388C25.1318 16.6711 23.8867 14.9939 22.4365 13.5144C22.5684 13.1702 22.6562 12.8333 22.7148 12.5842C22.7441 12.4524 22.7734 12.3279 22.8101 12.218C23.7695 9.00269 22.4512 5.25269 19.5288 2.89429C17.4487 1.21704 11.5381 -2.0935 1.59912 3.38501L0.317383 4.08814L0.683593 5.49439C0.756836 5.78003 2.5293 12.4597 6.05224 16.3709C7.57568 18.0627 9.4873 19.0149 11.5894 19.1174C11.7212 19.1248 11.853 19.1248 11.9775 19.1248C14.3359 19.1248 16.3574 18.0774 17.1777 17.3303L14.6582 14.5544C14.6289 14.5764 11.4795 16.7883 8.84277 13.8586C6.79932 11.5955 5.40771 7.96265 4.74854 5.97046C11.8457 2.55005 15.7715 4.6814 17.1704 5.80933C18.811 7.13501 19.624 9.09058 19.2871 10.7898C15.2515 7.80152 11.0474 6.1316 10.7104 6.00708L9.35547 9.50074C13.186 10.9802 23.125 16.283 23.125 22.8748V28.7708C21.6968 29.1443 20.3931 29.9133 19.4116 31.0193C18.5327 30.5945 17.5659 30.3748 16.5625 30.3748C13.8818 30.3748 11.5747 31.9861 10.5566 34.3005C10.0659 34.1833 9.56787 34.1248 9.0625 34.1248C5.44434 34.1248 2.5 37.0691 2.5 40.6873V41.6248H6.25V40.6873C6.25 39.1345 7.50976 37.8748 9.0625 37.8748C9.81689 37.8748 10.3955 38.1897 10.7471 38.4534L13.75 36.9592V36.9299C13.7573 35.3845 15.0171 34.1248 16.5625 34.1248C17.3169 34.1248 18.0273 34.425 18.562 34.967L21.6016 34.4397C22.2168 33.1067 23.5498 32.2498 25 32.2498C26.3623 32.2498 27.6221 33.0115 28.2812 34.2419L31.2402 34.696C31.6138 34.3298 32.1118 34.1248 32.6318 34.1248C33.7305 34.1248 34.6313 35.0256 34.6313 36.1243C34.6313 36.344 34.5874 36.5637 34.4995 36.8054L37.5098 38.8489C38.0078 38.4021 38.8428 37.8748 40 37.8748C42.0654 37.8748 43.75 39.5593 43.75 41.6248H47.5C47.5 37.4866 44.1382 34.1248 40 34.1248C39.3555 34.1248 38.7183 34.2126 38.1104 34.3738C37.3633 32.052 35.188 30.3748 32.6318 30.3748C31.8481 30.3748 31.1011 30.5286 30.3979 30.8215C29.4385 29.8181 28.2153 29.1223 26.875 28.7708V26.6248H26.8823V26.0095C26.8823 18.2239 39.1284 14.4959 39.2529 14.4592L38.1982 10.863C38.0078 10.9143 36.4771 11.3831 34.4629 12.3059C34.6094 11.5295 35.0122 10.8044 35.6934 10.2918C37.6782 8.78296 41.0474 9.06861 44.9072 11.0168C44.1528 12.2473 42.981 14.0125 41.5967 15.6897C40.564 16.9421 39.5459 17.2571 38.8721 17.2937ZM20.2832 11.2878L20.3052 11.5808C20.21 11.5076 20.1074 11.4343 20.0122 11.3538C20.1001 11.3318 20.1807 11.2952 20.2832 11.2878Z"/>
</mask>
<path d="M38.8721 17.2937L38.6007 12.3011L38.593 12.3015L38.5852 12.3019L38.8721 17.2937ZM37.7661 17.0886L40.6723 13.0199L37.9221 11.0556L35.0742 12.8751L37.7661 17.0886ZM34.6021 19.1101L31.9101 14.8966L27.7005 17.5861L30.3861 21.7982L34.6021 19.1101ZM38.3447 21.0364L38.0498 26.0277L38.0511 26.0277L38.3447 21.0364ZM44.4897 18.0701L48.343 21.2564L48.3506 21.2471L44.4897 18.0701ZM49.1479 11.1926L53.529 13.6022L53.5388 13.5845L53.5483 13.5668L49.1479 11.1926ZM49.9976 9.61792L54.3979 11.9921L56.6613 7.79698L52.5791 5.3359L49.9976 9.61792ZM48.4668 8.69507L51.0483 4.41304L51.042 4.40924L48.4668 8.69507ZM33.4229 7.29615L30.4036 3.31068L30.4015 3.31225L33.4229 7.29615ZM30.7935 14.3054L33.4847 18.5194L36.3902 16.6638L35.6889 13.2884L30.7935 14.3054ZM25.9302 18.5388L21.3326 20.5041L24.5987 28.1449L29.8199 21.6805L25.9302 18.5388ZM22.4365 13.5144L17.7672 11.7262L16.6196 14.7228L18.8658 17.0144L22.4365 13.5144ZM22.7148 12.5842L27.5819 13.7294L27.589 13.6992L27.5958 13.6689L22.7148 12.5842ZM22.8101 12.218L27.5535 13.7991L27.5786 13.7238L27.6013 13.6478L22.8101 12.218ZM19.5288 2.89429L22.6689 -0.996699L22.6673 -0.997992L19.5288 2.89429ZM1.59912 3.38501L4.00391 7.76874L4.0128 7.76384L1.59912 3.38501ZM0.317383 4.08814L-2.0874 -0.295582L-5.50302 1.57813L-4.52124 5.34819L0.317383 4.08814ZM0.683593 5.49439L5.52691 4.2525L5.52458 4.24341L5.52221 4.23433L0.683593 5.49439ZM6.05224 16.3709L9.76792 13.0251L9.76733 13.0245L6.05224 16.3709ZM11.5894 19.1174L11.8667 14.1251L11.8498 14.1242L11.833 14.1234L11.5894 19.1174ZM17.1777 17.3303L20.5444 21.027L24.2349 17.666L20.8801 13.9699L17.1777 17.3303ZM14.6582 14.5544L18.3606 11.194L15.3005 7.82264L11.6582 10.5545L14.6582 14.5544ZM8.84277 13.8586L12.5592 10.5138L12.5539 10.5079L8.84277 13.8586ZM4.74854 5.97046L2.57778 1.46626L-1.37767 3.37255L0.00163919 7.54112L4.74854 5.97046ZM17.1704 5.80933L20.3129 1.92027L20.3088 1.91694L17.1704 5.80933ZM19.2871 10.7898L16.3117 14.8081L22.6562 19.5061L24.1916 11.7623L19.2871 10.7898ZM10.7104 6.00708L12.4437 1.31712L7.8281 -0.38867L6.04878 4.1991L10.7104 6.00708ZM9.35547 9.50074L4.6938 7.69275L2.88328 12.3609L7.554 14.1649L9.35547 9.50074ZM23.125 28.7708L24.3901 33.6081L28.125 32.6312V28.7708H23.125ZM19.4116 31.0193L17.2358 35.521L20.641 37.1669L23.1514 34.338L19.4116 31.0193ZM10.5566 34.3005L9.39527 39.1638L13.4535 40.1329L15.1334 36.3137L10.5566 34.3005ZM2.5 41.6248H-2.5V46.6248H2.5V41.6248ZM6.25 41.6248V46.6248H11.25V41.6248H6.25ZM10.7471 38.4534L7.74707 42.4534L10.2138 44.3034L12.9744 42.9299L10.7471 38.4534ZM13.75 36.9592L15.9773 41.4357L18.75 40.0562V36.9592H13.75ZM13.75 36.9299L8.75006 36.9062L8.75 36.9181V36.9299H13.75ZM18.562 34.967L15.0025 38.4784L16.8395 40.3406L19.4167 39.8934L18.562 34.967ZM21.6016 34.4397L22.4563 39.3661L25.0417 38.9175L26.1414 36.535L21.6016 34.4397ZM28.2812 34.2419L23.8738 36.6031L25.0535 38.8051L27.5228 39.1841L28.2812 34.2419ZM31.2402 34.696L30.4818 39.6382L32.9543 40.0176L34.7406 38.2664L31.2402 34.696ZM34.4995 36.8054L29.8005 35.0967L28.47 38.7556L31.6913 40.9423L34.4995 36.8054ZM37.5098 38.8489L34.7015 42.9858L37.9373 45.1823L40.8485 42.5708L37.5098 38.8489ZM43.75 41.6248H38.75V46.6248H43.75V41.6248ZM47.5 41.6248V46.6248H52.5V41.6248H47.5ZM38.1104 34.3738L33.3507 35.9053L34.8043 40.4228L39.3914 39.2069L38.1104 34.3738ZM30.3979 30.8215L26.7842 34.277L29.1547 36.7562L32.321 35.4369L30.3979 30.8215ZM26.875 28.7708H21.875V32.6284L25.6064 33.6072L26.875 28.7708ZM26.875 26.6248V21.6248H21.875V26.6248H26.875ZM26.8823 26.6248V31.6248H31.8823V26.6248H26.8823ZM39.2529 14.4592L40.6637 19.2561L45.4569 17.8463L44.0508 13.0521L39.2529 14.4592ZM38.1982 10.863L42.9962 9.45591L41.62 4.76374L36.8984 6.03496L38.1982 10.863ZM34.4629 12.3059L29.5496 11.3789L27.7573 20.8781L36.5456 16.8515L34.4629 12.3059ZM35.6934 10.2918L38.7002 14.2866L38.7097 14.2795L38.7192 14.2723L35.6934 10.2918ZM44.9072 11.0168L49.1699 13.6303L52.0085 9.00033L47.1602 6.55321L44.9072 11.0168ZM41.5967 15.6897L37.7404 12.507L37.739 12.5088L41.5967 15.6897ZM20.2832 11.2878L25.2692 10.9139L24.8966 5.9456L19.927 6.30055L20.2832 11.2878ZM20.3052 11.5808L17.2566 15.5439L26.1283 22.3684L25.2912 11.2069L20.3052 11.5808ZM20.0122 11.3538L18.7995 6.50306L9.3353 8.86916L16.7825 15.1707L20.0122 11.3538ZM38.5852 12.3019C38.8649 12.2859 39.1388 12.3204 39.3992 12.3906C39.5282 12.4253 39.6674 12.4723 39.8179 12.5359C39.8923 12.5674 39.9842 12.6091 40.0903 12.6637C40.1431 12.6909 40.2121 12.7278 40.2926 12.7746C40.3575 12.8123 40.4996 12.8966 40.6723 13.0199L34.86 21.1573C35.5744 21.6676 36.3363 21.922 36.7995 22.0467C37.4408 22.2194 38.242 22.3382 39.159 22.2855L38.5852 12.3019ZM35.0742 12.8751L31.9101 14.8966L37.294 23.3236L40.4581 21.3021L35.0742 12.8751ZM30.3861 21.7982C32.1556 24.5735 35.276 25.8638 38.0498 26.0277L38.6397 16.0451C38.4937 16.0365 38.4157 15.9998 38.4188 16.0014C38.4244 16.0042 38.4685 16.0274 38.5372 16.0872C38.606 16.1472 38.711 16.2542 38.818 16.4221L30.3861 21.7982ZM38.0511 26.0277C38.3467 26.0451 38.6182 26.0437 38.7183 26.0437V16.0437C38.6856 16.0437 38.6637 16.0437 38.6432 16.0436C38.6239 16.0436 38.6121 16.0434 38.605 16.0433C38.5898 16.0431 38.605 16.043 38.6384 16.045L38.0511 26.0277ZM38.7183 26.0437C42.5778 26.0437 45.9918 24.0997 48.343 21.2564L40.6365 14.8838C39.8383 15.8491 39.0922 16.0437 38.7183 16.0437V26.0437ZM48.3506 21.2471C49.8677 19.4034 51.1336 17.5377 52.0211 16.136C52.4687 15.429 52.8292 14.8255 53.0866 14.3828C53.2155 14.1611 53.3189 13.9791 53.3949 13.8438C53.4329 13.7761 53.4638 13.7205 53.4874 13.6777C53.4992 13.6564 53.509 13.6386 53.5167 13.6248C53.5204 13.6179 53.5236 13.6121 53.5259 13.6079C53.5289 13.6025 53.5291 13.6021 53.529 13.6022L44.7669 8.78307C44.7178 8.87223 43.0094 12 40.6288 14.8931L48.3506 21.2471ZM53.5483 13.5668L54.3979 11.9921L45.5972 7.24376L44.7476 8.81847L53.5483 13.5668ZM52.5791 5.3359L51.0483 4.41304L45.8853 12.9771L47.416 13.9L52.5791 5.3359ZM51.042 4.40924C46.1218 1.45291 41.8084 0.417981 38.136 0.607214C34.4623 0.79651 31.8864 2.18733 30.4036 3.31068L36.4421 11.2816C36.6512 11.1232 37.3493 10.661 38.6505 10.594C39.953 10.5269 42.3157 10.8323 45.8916 12.9809L51.042 4.40924ZM30.4015 3.31225C26.6721 6.14055 24.9587 10.8012 25.898 15.3225L35.6889 13.2884C35.5296 12.5215 35.8083 11.7623 36.4442 11.28L30.4015 3.31225ZM28.1022 10.0915C26.0426 11.4069 23.8534 13.1525 22.0405 15.3971L29.8199 21.6805C30.7755 20.4974 32.058 19.4305 33.4847 18.5194L28.1022 10.0915ZM30.5278 16.5736C29.4213 13.9851 27.7611 11.8037 26.0072 10.0144L18.8658 17.0144C20.0123 18.1841 20.8424 19.3572 21.3326 20.5041L30.5278 16.5736ZM27.1058 15.3026C27.3536 14.6557 27.5013 14.0719 27.5819 13.7294L17.8478 11.439C17.8308 11.5111 17.8152 11.5718 17.7997 11.6253C17.7839 11.6802 17.7723 11.7129 17.7672 11.7262L27.1058 15.3026ZM27.5958 13.6689C27.6012 13.6446 27.6044 13.6303 27.6065 13.6213C27.6086 13.6126 27.6083 13.6141 27.6061 13.6226C27.604 13.6311 27.5988 13.6509 27.5908 13.6791C27.5827 13.7073 27.5704 13.7483 27.5535 13.7991L18.0666 10.6369C17.9395 11.0184 17.8624 11.3713 17.8339 11.4996L27.5958 13.6689ZM27.6013 13.6478C29.2244 8.20852 26.9302 2.44221 22.6689 -0.996699L16.3887 6.78528C17.9722 8.06317 18.3147 9.79686 18.0188 10.7883L27.6013 13.6478ZM22.6673 -0.997992C21.0817 -2.2765 18.2256 -4.02097 14.0984 -4.50915C9.93205 -5.00193 4.92842 -4.15944 -0.81456 -0.993816L4.0128 7.76384C8.20878 5.45095 11.13 5.20946 12.9237 5.42163C14.7565 5.63841 15.8958 6.38783 16.3903 6.78657L22.6673 -0.997992ZM-0.805666 -0.998707L-2.0874 -0.295582L2.72217 8.47186L4.00391 7.76873L-0.805666 -0.998707ZM-4.52124 5.34819L-4.15503 6.75444L5.52221 4.23433L5.156 2.82808L-4.52124 5.34819ZM-4.15972 6.73628C-4.08596 7.02394 -3.5594 8.99318 -2.55723 11.457C-1.58627 13.8441 -0.000777721 17.1217 2.33716 19.7172L9.76733 13.0245C8.58232 11.7089 7.5201 9.69111 6.70579 7.68916C5.92268 5.76391 5.52639 4.25049 5.52691 4.2525L-4.15972 6.73628ZM2.33657 19.7166C4.66444 22.3018 7.78836 23.938 11.3457 24.1115L11.833 14.1234C11.1862 14.0918 10.4869 13.8236 9.76792 13.0251L2.33657 19.7166ZM11.312 24.1097C11.6048 24.126 11.8741 24.1248 11.9775 24.1248V14.1248C11.945 14.1248 11.9223 14.1248 11.9008 14.1247C11.8803 14.1246 11.8664 14.1245 11.8566 14.1243C11.8358 14.124 11.8427 14.1238 11.8667 14.1251L11.312 24.1097ZM11.9775 24.1248C15.6207 24.1248 18.8328 22.5858 20.5444 21.027L13.8111 13.6336C13.908 13.5454 13.9152 13.557 13.7948 13.6285C13.6885 13.6918 13.5281 13.7745 13.3235 13.855C12.9023 14.0207 12.4294 14.1248 11.9775 14.1248V24.1248ZM20.8801 13.9699L18.3606 11.194L10.9559 17.9149L13.4754 20.6908L20.8801 13.9699ZM11.6582 10.5545C11.7048 10.5195 11.7422 10.4928 11.7455 10.4905C11.7586 10.4811 11.7694 10.4735 11.7768 10.4682C11.7922 10.4574 11.805 10.4485 11.8149 10.4417C11.8351 10.4279 11.8518 10.4167 11.865 10.408C11.8917 10.3904 11.9102 10.3788 11.9215 10.372C11.9431 10.359 11.9444 10.3593 11.9314 10.3656C11.8895 10.3858 11.8685 10.3878 11.8945 10.3834C11.9363 10.3764 12.1018 10.3576 12.3249 10.4259C12.4333 10.4592 12.5178 10.5022 12.5719 10.5373C12.6243 10.5714 12.6163 10.5773 12.5592 10.5138L5.1263 17.2035C7.77582 20.1474 11.0467 20.6688 13.562 20.2434C15.7438 19.8744 17.2749 18.842 17.6582 18.5544L11.6582 10.5545ZM12.5539 10.5079C11.9924 9.88606 11.3786 8.89754 10.7909 7.66337C10.2238 6.47245 9.78512 5.27531 9.49543 4.3998L0.00163919 7.54112C0.667609 9.55383 2.32047 14.0959 5.13168 17.2094L12.5539 10.5079ZM6.91929 10.4747C9.75781 9.10667 11.5554 9.03474 12.498 9.14835C13.448 9.26284 13.9227 9.61355 14.032 9.70172L20.3088 1.91694C19.0192 0.877181 16.8315 -0.401745 13.6946 -0.77981C10.5503 -1.15876 6.83643 -0.586152 2.57778 1.46626L6.91929 10.4747ZM14.0279 9.69838C14.236 9.86649 14.3323 10.0291 14.3644 10.105C14.3987 10.1864 14.3299 10.0832 14.3826 9.81735L24.1916 11.7623C24.9651 7.86147 23.0703 4.14832 20.3129 1.92028L14.0279 9.69838ZM22.2625 6.7715C17.7094 3.40002 13.029 1.53343 12.4437 1.31712L8.97718 10.6971C8.95789 10.6899 9.91968 11.0616 11.3583 11.7879C12.7874 12.5095 14.5866 13.5307 16.3117 14.8081L22.2625 6.7715ZM6.04878 4.1991L4.6938 7.69275L14.0171 11.3087L15.3721 7.81507L6.04878 4.1991ZM7.554 14.1649C9.10563 14.7642 12.088 16.2331 14.5826 18.1983C17.3393 20.3699 18.125 22.0415 18.125 22.8748H28.125C28.125 17.1162 23.9413 12.8406 20.7708 10.343C17.3383 7.63896 13.4359 5.71674 11.1569 4.83654L7.554 14.1649ZM18.125 22.8748V28.7708H28.125V22.8748H18.125ZM21.8599 23.9335C19.5356 24.5413 17.3504 25.8091 15.6718 27.7005L23.1514 34.338C23.4358 34.0176 23.858 33.7472 24.3901 33.6081L21.8599 23.9335ZM21.5875 26.5175C20.0155 25.7578 18.3031 25.3748 16.5625 25.3748V35.3748C16.8287 35.3748 17.0499 35.4312 17.2358 35.521L21.5875 26.5175ZM16.5625 25.3748C11.8247 25.3748 7.76597 28.2268 5.97985 32.2873L15.1334 36.3137C15.3834 35.7454 15.939 35.3748 16.5625 35.3748V25.3748ZM11.718 29.4373C10.8462 29.2291 9.95835 29.1248 9.0625 29.1248V39.1248C9.17739 39.1248 9.28563 39.1376 9.39527 39.1638L11.718 29.4373ZM9.0625 29.1248C2.68291 29.1248 -2.5 34.3077 -2.5 40.6873H7.5C7.5 39.8305 8.20576 39.1248 9.0625 39.1248V29.1248ZM-2.5 40.6873V41.6248H7.5V40.6873H-2.5ZM2.5 46.6248H6.25V36.6248H2.5V46.6248ZM11.25 41.6248V40.6873H1.25V41.6248H11.25ZM11.25 40.6873C11.25 41.8959 10.2712 42.8748 9.0625 42.8748V32.8748C4.74834 32.8748 1.25 36.3731 1.25 40.6873H11.25ZM9.0625 42.8748C8.38482 42.8748 7.93112 42.5914 7.74707 42.4534L13.7471 34.4534C12.8599 33.788 11.249 32.8748 9.0625 32.8748V42.8748ZM12.9744 42.9299L15.9773 41.4357L11.5227 32.4827L8.51974 33.9769L12.9744 42.9299ZM18.75 36.9592V36.9299H8.75V36.9592H18.75ZM18.7499 36.9536C18.7443 38.1465 17.7831 39.1248 16.5625 39.1248V29.1248C12.2511 29.1248 8.77036 32.6225 8.75006 36.9062L18.7499 36.9536ZM16.5625 39.1248C15.9581 39.1248 15.3926 38.8739 15.0025 38.4784L22.1215 31.4556C20.6621 29.9762 18.6757 29.1248 16.5625 29.1248V39.1248ZM19.4167 39.8934L22.4563 39.3661L20.7469 29.5133L17.7073 30.0406L19.4167 39.8934ZM26.1414 36.535C25.949 36.9517 25.5232 37.2498 25 37.2498V27.2498C21.5765 27.2498 18.4845 29.2617 17.0618 32.3444L26.1414 36.535ZM25 37.2498C24.4753 37.2498 24.0642 36.9584 23.8738 36.6031L32.6887 31.8808C31.1799 29.0645 28.2493 27.2498 25 27.2498V37.2498ZM27.5228 39.1841L30.4818 39.6382L31.9987 29.7539L29.0397 29.2998L27.5228 39.1841ZM34.7406 38.2664C34.1902 38.806 33.4357 39.1248 32.6318 39.1248V29.1248C30.788 29.1248 29.0374 29.8536 27.7399 31.1257L34.7406 38.2664ZM32.6318 39.1248C30.969 39.1248 29.6313 37.7871 29.6313 36.1243H39.6313C39.6313 32.2642 36.4919 29.1248 32.6318 29.1248V39.1248ZM29.6313 36.1243C29.6313 35.6437 29.7339 35.2801 29.8005 35.0967L39.1985 38.5141C39.441 37.8473 39.6313 37.0443 39.6313 36.1243H29.6313ZM31.6913 40.9423L34.7015 42.9858L40.318 34.712L37.3078 32.6685L31.6913 40.9423ZM40.8485 42.5708C40.7997 42.6146 40.7096 42.6861 40.5654 42.7513C40.404 42.8241 40.2036 42.8748 40 42.8748V32.8748C37.2247 32.8748 35.2517 34.1575 34.171 35.127L40.8485 42.5708ZM40 42.8748C39.304 42.8748 38.75 42.3208 38.75 41.6248H48.75C48.75 36.7979 44.8269 32.8748 40 32.8748V42.8748ZM43.75 46.6248H47.5V36.6248H43.75V46.6248ZM52.5 41.6248C52.5 34.7252 46.8996 29.1248 40 29.1248V39.1248C41.3768 39.1248 42.5 40.248 42.5 41.6248H52.5ZM40 29.1248C38.9031 29.1248 37.8355 29.274 36.8293 29.5407L39.3914 39.2069C39.601 39.1513 39.8078 39.1248 40 39.1248V29.1248ZM42.87 32.8423C41.4791 28.5196 37.4281 25.3748 32.6318 25.3748V35.3748C32.9479 35.3748 33.2474 35.5844 33.3507 35.9053L42.87 32.8423ZM32.6318 25.3748C31.1784 25.3748 29.7784 25.663 28.4749 26.2062L32.321 35.4369C32.4237 35.3941 32.5179 35.3748 32.6318 35.3748V25.3748ZM34.0117 27.366C32.3776 25.6571 30.3271 24.5071 28.1436 23.9344L25.6064 33.6072C26.1036 33.7375 26.4993 33.9792 26.7842 34.277L34.0117 27.366ZM31.875 28.7708V26.6248H21.875V28.7708H31.875ZM26.875 31.6248H26.8823V21.6248H26.875V31.6248ZM31.8823 26.6248V26.0095H21.8823V26.6248H31.8823ZM31.8823 26.0095C31.8823 24.9107 32.8307 23.3313 35.6576 21.5768C38.1877 20.0065 40.7955 19.2173 40.6637 19.2561L37.8421 9.66239C37.5859 9.73776 34.0083 10.8309 30.3842 13.0802C27.057 15.1453 21.8823 19.3227 21.8823 26.0095H31.8823ZM44.0508 13.0521L42.9962 9.45591L33.4003 12.2702L34.455 15.8664L44.0508 13.0521ZM36.8984 6.03496C36.4275 6.16174 34.6353 6.72706 32.3802 7.76032L36.5456 16.8515C38.3188 16.0391 39.5881 15.6669 39.4981 15.6911L36.8984 6.03496ZM39.3762 13.233C39.3166 13.5489 39.117 13.9729 38.7002 14.2866L32.6865 6.29691C30.9074 7.63604 29.9022 9.51018 29.5496 11.3789L39.3762 13.233ZM38.7192 14.2723C38.4533 14.4744 38.4499 14.2819 39.1968 14.3419C39.9469 14.4021 41.1189 14.7055 42.6542 15.4805L47.1602 6.55321C44.8357 5.37994 42.3932 4.5664 39.9975 4.37397C37.5986 4.18128 34.9183 4.60031 32.6676 6.31123L38.7192 14.2723ZM40.6446 8.40344C39.9675 9.50774 38.9302 11.0655 37.7404 12.507L45.4529 18.8724C47.0317 16.9594 48.3381 14.9869 49.1699 13.6303L40.6446 8.40344ZM37.739 12.5088C37.6124 12.6623 37.6216 12.5994 37.8186 12.4984C38.0166 12.3968 38.2851 12.3182 38.6007 12.3011L39.1434 22.2863C41.2567 22.1715 43.5601 21.1679 45.4544 18.8706L37.739 12.5088ZM15.2972 11.6618L15.3192 11.9548L25.2912 11.2069L25.2692 10.9139L15.2972 11.6618ZM23.3538 7.61772C23.3074 7.58206 23.2651 7.55021 23.2386 7.53027C23.2061 7.50577 23.1954 7.49782 23.1822 7.48781C23.1722 7.48017 23.1745 7.48185 23.1836 7.48899C23.193 7.4964 23.2137 7.51295 23.2419 7.53685L16.7825 15.1707C16.9297 15.2953 17.0603 15.3954 17.1351 15.4523C17.1714 15.4798 17.2102 15.5089 17.2266 15.5213C17.2372 15.5293 17.2442 15.5345 17.2496 15.5386C17.2548 15.5425 17.2568 15.544 17.2566 15.5439L23.3538 7.61772ZM21.2249 16.2045C21.3816 16.1653 21.507 16.1267 21.5512 16.113C21.5636 16.1092 21.5746 16.1058 21.58 16.1041C21.5834 16.103 21.5849 16.1026 21.5866 16.102C21.588 16.1016 21.5882 16.1015 21.5879 16.1016C21.5874 16.1018 21.5825 16.1033 21.5752 16.1055C21.5677 16.1078 21.5564 16.1112 21.5422 16.1153C21.4295 16.1482 21.0918 16.2428 20.6394 16.2751L19.927 6.30055C19.3721 6.34019 18.9428 6.4568 18.7423 6.5153C18.6712 6.53603 18.5634 6.5697 18.6032 6.55742C18.6044 6.55706 18.6868 6.53124 18.7995 6.50306L21.2249 16.2045Z" fill="black" mask="url(#path-1-inside-1_494_317)"/>
</svg>
